<svg width="140" height="54" viewBox="0 0 140 54" fill="none" xmlns="http://www.w3.org/2000/svg">
<path d="M14.184 40.252C11.808 40.252 9.624 39.7 7.632 38.596C5.664 37.492 4.092 35.956 2.916 33.988C1.764 31.996 1.188 29.764 1.188 27.292C1.188 24.82 1.764 22.6 2.916 20.632C4.092 18.664 5.664 17.128 7.632 16.024C9.624 14.92 11.808 14.368 14.184 14.368C16.56 14.368 18.732 14.92 20.7 16.024C22.692 17.128 24.252 18.664 25.38 20.632C26.532 22.6 27.108 24.82 27.108 27.292C27.108 29.764 26.532 31.996 25.38 33.988C24.228 35.956 22.668 37.492 20.7 38.596C18.732 39.7 16.56 40.252 14.184 40.252ZM14.184 34.636C16.2 34.636 17.808 33.964 19.008 32.62C20.232 31.276 20.844 29.5 20.844 27.292C20.844 25.06 20.232 23.284 19.008 21.964C17.808 20.62 16.2 19.948 14.184 19.948C12.144 19.948 10.512 20.608 9.288 21.928C8.088 23.248 7.488 25.036 7.488 27.292C7.488 29.524 8.088 31.312 9.288 32.656C10.512 33.976 12.144 34.636 14.184 34.636ZM46.0128 24.808V29.92H30.1728V24.808H46.0128ZM67.8676 14.728V19.66H57.5716V24.988H65.2756V29.776H57.5716V40H51.4156V14.728H67.8676ZM77.2591 14.728V40H71.1031V14.728H77.2591ZM104.328 40H98.1723L87.8763 24.412V40H81.7203V14.728H87.8763L98.1723 30.388V14.728H104.328V40ZM114.947 19.66V24.772H123.191V29.524H114.947V35.068H124.271V40H108.791V14.728H124.271V19.66H114.947Z" fill="black"/>
<rect x="130" y="30" width="10" height="10" fill="#B17035"/>
</svg>
